<svg width="82" height="52" viewBox="0 0 82 52" fill="none" xmlns="http://www.w3.org/2000/svg">
<path d="M11.5779 16.244H7.96626V14.7863H11.5779C12.2773 14.7863 12.8437 14.6749 13.2769 14.4521C13.7102 14.2292 14.0259 13.9198 14.224 13.5236C14.4282 13.1275 14.5303 12.6756 14.5303 12.1681C14.5303 11.7039 14.4282 11.2675 14.224 10.859C14.0259 10.4505 13.7102 10.1224 13.2769 9.87484C12.8437 9.62107 12.2773 9.49418 11.5779 9.49418H8.38406V21.5454H6.59216V8.02724H11.5779C12.5992 8.02724 13.4626 8.20365 14.1683 8.55645C14.8739 8.90926 15.4093 9.39824 15.7745 10.0234C16.1396 10.6424 16.3222 11.3511 16.3222 12.1495C16.3222 13.0161 16.1396 13.7557 15.7745 14.3685C15.4093 14.9813 14.8739 15.4486 14.1683 15.7704C13.4626 16.0861 12.5992 16.244 11.5779 16.244Z" fill="white"/>
<path d="M22.3664 21.731C21.667 21.731 21.0325 21.6134 20.4631 21.3782C19.8998 21.1368 19.4139 20.7995 19.0054 20.3662C18.6031 19.933 18.2936 19.4192 18.077 18.825C17.8604 18.2308 17.752 17.5809 17.752 16.8753V16.4853C17.752 15.6683 17.8727 14.941 18.1141 14.3035C18.3555 13.6598 18.6836 13.1151 19.0983 12.6695C19.513 12.2238 19.9834 11.8865 20.5095 11.6574C21.0356 11.4284 21.5803 11.3139 22.1436 11.3139C22.8616 11.3139 23.4805 11.4377 24.0005 11.6853C24.5266 11.9329 24.9567 12.2795 25.291 12.7252C25.6252 13.1646 25.8728 13.6845 26.0337 14.2849C26.1947 14.8791 26.2751 15.5291 26.2751 16.2347V17.0053H18.7733V15.6033H24.5575V15.4733C24.5328 15.0277 24.4399 14.5944 24.279 14.1735C24.1242 13.7526 23.8767 13.406 23.5362 13.1337C23.1958 12.8613 22.7316 12.7252 22.1436 12.7252C21.7536 12.7252 21.3946 12.8087 21.0666 12.9758C20.7385 13.1368 20.4569 13.3782 20.2217 13.7C19.9865 14.0219 19.8039 14.4149 19.6739 14.8791C19.5439 15.3434 19.4789 15.8788 19.4789 16.4853V16.8753C19.4789 17.3519 19.5439 17.8006 19.6739 18.2215C19.8101 18.6362 20.0051 19.0014 20.2588 19.3171C20.5188 19.6328 20.8314 19.8803 21.1966 20.0598C21.5679 20.2393 21.9888 20.3291 22.4592 20.3291C23.0658 20.3291 23.5796 20.2053 24.0005 19.9577C24.4213 19.7101 24.7896 19.379 25.1053 18.9643L26.1452 19.7906C25.9285 20.1187 25.6531 20.4312 25.3188 20.7283C24.9846 21.0254 24.573 21.2668 24.084 21.4525C23.6012 21.6382 23.0287 21.731 22.3664 21.731Z" fill="white"/>
<path d="M32.4864 11.4996V12.818H27.055V11.4996H32.4864ZM28.8933 9.05781H30.611V19.0571C30.611 19.3976 30.6636 19.6544 30.7688 19.8277C30.874 20.001 31.0102 20.1156 31.1773 20.1713C31.3444 20.227 31.5239 20.2548 31.7158 20.2548C31.8582 20.2548 32.0067 20.2424 32.1615 20.2177C32.3224 20.1867 32.4431 20.162 32.5235 20.1434L32.5328 21.5454C32.3967 21.5887 32.2172 21.6289 31.9943 21.6661C31.7777 21.7094 31.5146 21.731 31.2052 21.731C30.7843 21.731 30.3974 21.6475 30.0446 21.4804C29.6918 21.3132 29.4102 21.0347 29.1997 20.6448C28.9955 20.2486 28.8933 19.7163 28.8933 19.0478V9.05781Z" fill="white"/>
<path d="M41.9658 18.1287C41.9658 17.813 41.9163 17.5345 41.8173 17.2931C41.7244 17.0455 41.5573 16.8227 41.3159 16.6246C41.0807 16.4265 40.7526 16.2378 40.3317 16.0583C39.917 15.8788 39.3909 15.6962 38.7534 15.5105C38.0849 15.3124 37.4814 15.0927 36.9429 14.8513C36.4044 14.6037 35.9433 14.3221 35.5596 14.0064C35.1758 13.6907 34.8818 13.3286 34.6775 12.9201C34.4733 12.5116 34.3711 12.0443 34.3711 11.5182C34.3711 10.9921 34.4795 10.5062 34.6961 10.0605C34.9127 9.61488 35.2222 9.22803 35.6245 8.89998C36.0331 8.56574 36.5189 8.30577 37.0822 8.12009C37.6455 7.9344 38.2737 7.84155 38.9669 7.84155C39.982 7.84155 40.8424 8.03653 41.548 8.42647C42.2598 8.81023 42.8014 9.31468 43.1728 9.93983C43.5442 10.5588 43.7298 11.2211 43.7298 11.9267H41.9472C41.9472 11.4191 41.8389 10.9704 41.6223 10.5805C41.4056 10.1843 41.0776 9.87484 40.6381 9.65201C40.1987 9.423 39.6416 9.30849 38.9669 9.30849C38.3294 9.30849 37.8033 9.40443 37.3886 9.59631C36.9739 9.78819 36.6644 10.0482 36.4601 10.3762C36.2621 10.7042 36.163 11.0787 36.163 11.4996C36.163 11.7843 36.2218 12.0443 36.3394 12.2795C36.4632 12.5085 36.652 12.7221 36.9058 12.9201C37.1658 13.1182 37.4938 13.3008 37.8899 13.4679C38.2923 13.635 38.772 13.796 39.329 13.9507C40.0965 14.1673 40.7588 14.4087 41.3159 14.6749C41.873 14.941 42.331 15.2412 42.69 15.5755C43.0552 15.9035 43.3244 16.278 43.4977 16.6989C43.6772 17.1136 43.767 17.584 43.767 18.1101C43.767 18.661 43.6556 19.1593 43.4327 19.6049C43.2099 20.0506 42.8912 20.4312 42.4764 20.7469C42.0617 21.0626 41.5635 21.3071 40.9817 21.4804C40.406 21.6475 39.7623 21.731 39.0505 21.731C38.4253 21.731 37.8095 21.6444 37.2029 21.4711C36.6025 21.2978 36.0547 21.0378 35.5596 20.6912C35.0706 20.3446 34.6775 19.9175 34.3804 19.4099C34.0895 18.8962 33.9441 18.302 33.9441 17.6273H35.7267C35.7267 18.0916 35.8164 18.4908 35.9959 18.825C36.1754 19.1531 36.4199 19.4254 36.7294 19.642C37.0451 19.8587 37.401 20.0196 37.7971 20.1248C38.1994 20.2239 38.6172 20.2734 39.0505 20.2734C39.6756 20.2734 40.2049 20.1867 40.6381 20.0134C41.0714 19.8401 41.3995 19.5925 41.6223 19.2707C41.8513 18.9488 41.9658 18.5682 41.9658 18.1287Z" fill="white"/>
<path d="M49.9968 11.4996V12.818H44.5654V11.4996H49.9968ZM46.4038 9.05781H48.1214V19.0571C48.1214 19.3976 48.174 19.6544 48.2792 19.8277C48.3844 20.001 48.5206 20.1156 48.6877 20.1713C48.8548 20.227 49.0343 20.2548 49.2262 20.2548C49.3686 20.2548 49.5171 20.2424 49.6719 20.2177C49.8328 20.1867 49.9535 20.162 50.034 20.1434L50.0433 21.5454C49.9071 21.5887 49.7276 21.6289 49.5048 21.6661C49.2881 21.7094 49.0251 21.731 48.7156 21.731C48.2947 21.731 47.9078 21.6475 47.555 21.4804C47.2022 21.3132 46.9206 21.0347 46.7101 20.6448C46.5059 20.2486 46.4038 19.7163 46.4038 19.0478V9.05781Z" fill="white"/>
<path d="M51.3709 16.6339V16.4204C51.3709 15.6962 51.4761 15.0246 51.6866 14.4056C51.897 13.7805 52.2003 13.2389 52.5965 12.7809C52.9926 12.3166 53.4723 11.9576 54.0356 11.7039C54.5988 11.4439 55.2301 11.3139 55.9296 11.3139C56.6352 11.3139 57.2696 11.4439 57.8329 11.7039C58.4023 11.9576 58.8851 12.3166 59.2812 12.7809C59.6836 13.2389 59.99 13.7805 60.2004 14.4056C60.4109 15.0246 60.5161 15.6962 60.5161 16.4204V16.6339C60.5161 17.3581 60.4109 18.0297 60.2004 18.6486C59.99 19.2676 59.6836 19.8092 59.2812 20.2734C58.8851 20.7314 58.4054 21.0904 57.8422 21.3504C57.2851 21.6042 56.6538 21.731 55.9481 21.731C55.2425 21.731 54.6081 21.6042 54.0448 21.3504C53.4816 21.0904 52.9988 20.7314 52.5965 20.2734C52.2003 19.8092 51.897 19.2676 51.6866 18.6486C51.4761 18.0297 51.3709 17.3581 51.3709 16.6339ZM53.0885 16.4204V16.6339C53.0885 17.1353 53.1473 17.6088 53.2649 18.0544C53.3825 18.4939 53.559 18.8838 53.7942 19.2243C54.0356 19.5647 54.3358 19.8339 54.6947 20.032C55.0537 20.2239 55.4715 20.3198 55.9481 20.3198C56.4186 20.3198 56.8302 20.2239 57.183 20.032C57.542 19.8339 57.8391 19.5647 58.0743 19.2243C58.3095 18.8838 58.4859 18.4939 58.6035 18.0544C58.7273 17.6088 58.7892 17.1353 58.7892 16.6339V16.4204C58.7892 15.9252 58.7273 15.4579 58.6035 15.0184C58.4859 14.5728 58.3064 14.1797 58.065 13.8393C57.8298 13.4927 57.5327 13.2203 57.1737 13.0223C56.8209 12.8242 56.4062 12.7252 55.9296 12.7252C55.4592 12.7252 55.0445 12.8242 54.6855 13.0223C54.3327 13.2203 54.0356 13.4927 53.7942 13.8393C53.559 14.1797 53.3825 14.5728 53.2649 15.0184C53.1473 15.4579 53.0885 15.9252 53.0885 16.4204Z" fill="white"/>
<path d="M64.3877 13.078V21.5454H62.6701V11.4996H64.3413L64.3877 13.078ZM67.5258 11.4439L67.5165 13.0408C67.3742 13.0099 67.238 12.9913 67.108 12.9851C66.9842 12.9727 66.8419 12.9666 66.6809 12.9666C66.2848 12.9666 65.9351 13.0284 65.6318 13.1522C65.3285 13.276 65.0716 13.4493 64.8612 13.6722C64.6507 13.895 64.4836 14.1611 64.3598 14.4706C64.2422 14.7739 64.1649 15.1082 64.1277 15.4733L63.6449 15.7519C63.6449 15.1453 63.7037 14.5759 63.8213 14.0435C63.9451 13.5112 64.1339 13.0408 64.3877 12.6323C64.6415 12.2176 64.9633 11.8957 65.3533 11.6667C65.7494 11.4315 66.2198 11.3139 66.7645 11.3139C66.8883 11.3139 67.0306 11.3294 67.1916 11.3603C67.3525 11.3851 67.4639 11.413 67.5258 11.4439Z" fill="white"/>
<path d="M72.103 20.5055L74.8976 11.4996H76.736L72.7065 23.0959C72.6137 23.3434 72.4899 23.6096 72.3351 23.8943C72.1866 24.1852 71.9947 24.4607 71.7595 24.7206C71.5243 24.9806 71.2396 25.191 70.9053 25.352C70.5773 25.5191 70.1843 25.6026 69.7262 25.6026C69.59 25.6026 69.4167 25.5841 69.2063 25.5469C68.9958 25.5098 68.8473 25.4789 68.7606 25.4541L68.7514 24.0614C68.8009 24.0676 68.8782 24.0738 68.9835 24.08C69.0949 24.0924 69.1722 24.0986 69.2156 24.0986C69.6055 24.0986 69.9367 24.046 70.209 23.9407C70.4814 23.8417 70.7104 23.6715 70.8961 23.4301C71.0879 23.1949 71.252 22.8699 71.3881 22.4552L72.103 20.5055ZM70.0512 11.4996L72.6601 19.2985L73.1057 21.109L71.8709 21.7403L68.1757 11.4996H70.0512Z" fill="white"/>
<path d="M16.2572 39.6339V39.4204C16.2572 38.6962 16.3625 38.0246 16.5729 37.4056C16.7834 36.7805 17.0867 36.2389 17.4828 35.7809C17.8789 35.3166 18.3586 34.9576 18.9219 34.7039C19.4851 34.4439 20.1165 34.3139 20.8159 34.3139C21.5215 34.3139 22.1559 34.4439 22.7192 34.7039C23.2886 34.9576 23.7714 35.3166 24.1676 35.7809C24.5699 36.2389 24.8763 36.7805 25.0867 37.4056C25.2972 38.0246 25.4024 38.6962 25.4024 39.4204V39.6339C25.4024 40.3581 25.2972 41.0297 25.0867 41.6486C24.8763 42.2676 24.5699 42.8092 24.1676 43.2734C23.7714 43.7314 23.2917 44.0904 22.7285 44.3504C22.1714 44.6042 21.5401 44.731 20.8345 44.731C20.1288 44.731 19.4944 44.6042 18.9312 44.3504C18.3679 44.0904 17.8851 43.7314 17.4828 43.2734C17.0867 42.8092 16.7834 42.2676 16.5729 41.6486C16.3625 41.0297 16.2572 40.3581 16.2572 39.6339ZM17.9749 39.4204V39.6339C17.9749 40.1353 18.0337 40.6088 18.1513 41.0544C18.2689 41.4939 18.4453 41.8838 18.6805 42.2243C18.9219 42.5647 19.2221 42.8339 19.5811 43.032C19.9401 43.2239 20.3579 43.3198 20.8345 43.3198C21.3049 43.3198 21.7165 43.2239 22.0693 43.032C22.4283 42.8339 22.7254 42.5647 22.9606 42.2243C23.1958 41.8838 23.3722 41.4939 23.4898 41.0544C23.6136 40.6088 23.6755 40.1353 23.6755 39.6339V39.4204C23.6755 38.9252 23.6136 38.4579 23.4898 38.0184C23.3722 37.5728 23.1927 37.1797 22.9513 36.8393C22.7161 36.4927 22.419 36.2203 22.06 36.0223C21.7072 35.8242 21.2925 35.7252 20.8159 35.7252C20.3455 35.7252 19.9308 35.8242 19.5718 36.0223C19.219 36.2203 18.9219 36.4927 18.6805 36.8393C18.4453 37.1797 18.2689 37.5728 18.1513 38.0184C18.0337 38.4579 17.9749 38.9252 17.9749 39.4204Z" fill="white"/>
<path d="M29.274 36.6443V44.5454H27.5564V34.4996H29.1812L29.274 36.6443ZM28.8655 39.1418L28.1506 39.114C28.1568 38.4269 28.2589 37.7925 28.457 37.2107C28.655 36.6227 28.9336 36.112 29.2926 35.6787C29.6516 35.2455 30.0787 34.9112 30.5738 34.676C31.0752 34.4346 31.6291 34.3139 32.2357 34.3139C32.7309 34.3139 33.1766 34.382 33.5727 34.5182C33.9688 34.6482 34.3062 34.8586 34.5847 35.1495C34.8694 35.4404 35.086 35.818 35.2346 36.2822C35.3831 36.7403 35.4574 37.3004 35.4574 37.9627V44.5454H33.7305V37.9441C33.7305 37.418 33.6532 36.9971 33.4984 36.6815C33.3437 36.3596 33.1178 36.1275 32.8207 35.9851C32.5235 35.8366 32.1584 35.7623 31.7251 35.7623C31.298 35.7623 30.9081 35.852 30.5553 36.0315C30.2086 36.211 29.9084 36.4586 29.6547 36.7743C29.4071 37.09 29.2121 37.4521 29.0697 37.8606C28.9336 38.2629 28.8655 38.69 28.8655 39.1418Z" fill="white"/>
<path d="M39.9325 30.2845V44.5454H38.2056V30.2845H39.9325Z" fill="white"/>
<path d="M44.5562 34.4996V44.5454H42.8293V34.4996H44.5562ZM42.6993 31.835C42.6993 31.5565 42.7828 31.3212 42.95 31.1294C43.1233 30.9375 43.377 30.8416 43.7113 30.8416C44.0393 30.8416 44.29 30.9375 44.4633 31.1294C44.6428 31.3212 44.7326 31.5565 44.7326 31.835C44.7326 32.1011 44.6428 32.3302 44.4633 32.522C44.29 32.7077 44.0393 32.8006 43.7113 32.8006C43.377 32.8006 43.1233 32.7077 42.95 32.522C42.7828 32.3302 42.6993 32.1011 42.6993 31.835Z" fill="white"/>
<path d="M49.0312 36.6443V44.5454H47.3136V34.4996H48.9384L49.0312 36.6443ZM48.6227 39.1418L47.9078 39.114C47.914 38.4269 48.0162 37.7925 48.2142 37.2107C48.4123 36.6227 48.6908 36.112 49.0498 35.6787C49.4088 35.2455 49.8359 34.9112 50.3311 34.676C50.8324 34.4346 51.3864 34.3139 51.993 34.3139C52.4881 34.3139 52.9338 34.382 53.3299 34.5182C53.7261 34.6482 54.0634 34.8586 54.3419 35.1495C54.6267 35.4404 54.8433 35.818 54.9918 36.2822C55.1404 36.7403 55.2147 37.3004 55.2147 37.9627V44.5454H53.4878V37.9441C53.4878 37.418 53.4104 36.9971 53.2557 36.6815C53.1009 36.3596 52.875 36.1275 52.5779 35.9851C52.2808 35.8366 51.9156 35.7623 51.4823 35.7623C51.0552 35.7623 50.6653 35.852 50.3125 36.0315C49.9659 36.211 49.6657 36.4586 49.4119 36.7743C49.1643 37.09 48.9693 37.4521 48.827 37.8606C48.6908 38.2629 48.6227 38.69 48.6227 39.1418Z" fill="white"/>
<path d="M61.9923 44.731C61.2929 44.731 60.6584 44.6134 60.089 44.3782C59.5257 44.1368 59.0399 43.7995 58.6313 43.3662C58.229 42.933 57.9195 42.4192 57.7029 41.825C57.4863 41.2308 57.3779 40.5809 57.3779 39.8753V39.4853C57.3779 38.6683 57.4986 37.941 57.74 37.3035C57.9814 36.6598 58.3095 36.1151 58.7242 35.6695C59.1389 35.2238 59.6093 34.8865 60.1354 34.6574C60.6615 34.4284 61.2062 34.3139 61.7695 34.3139C62.4875 34.3139 63.1064 34.4377 63.6264 34.6853C64.1525 34.9329 64.5827 35.2795 64.9169 35.7252C65.2511 36.1646 65.4987 36.6845 65.6596 37.2849C65.8206 37.8791 65.901 38.5291 65.901 39.2347V40.0053H58.3992V38.6033H64.1834V38.4733C64.1587 38.0277 64.0658 37.5944 63.9049 37.1735C63.7502 36.7526 63.5026 36.406 63.1621 36.1337C62.8217 35.8613 62.3575 35.7252 61.7695 35.7252C61.3795 35.7252 61.0205 35.8087 60.6925 35.9758C60.3644 36.1368 60.0828 36.3782 59.8476 36.7C59.6124 37.0219 59.4298 37.4149 59.2998 37.8791C59.1698 38.3434 59.1048 38.8788 59.1048 39.4853V39.8753C59.1048 40.3519 59.1698 40.8006 59.2998 41.2215C59.436 41.6362 59.631 42.0014 59.8847 42.3171C60.1447 42.6328 60.4573 42.8803 60.8225 43.0598C61.1938 43.2393 61.6147 43.3291 62.0851 43.3291C62.6917 43.3291 63.2055 43.2053 63.6264 42.9577C64.0473 42.7101 64.4155 42.379 64.7312 41.9643L65.7711 42.7906C65.5544 43.1186 65.279 43.4312 64.9447 43.7283C64.6105 44.0254 64.1989 44.2668 63.7099 44.4525C63.2271 44.6382 62.6546 44.731 61.9923 44.731Z" fill="white"/>
<path fill-rule="evenodd" clip-rule="evenodd" d="M8.38406 21.5454H6.59216V8.02724H11.5779C12.5992 8.02724 13.4626 8.20365 14.1683 8.55645C14.8739 8.90926 15.4093 9.39824 15.7745 10.0234C16.1396 10.6424 16.3222 11.3511 16.3222 12.1495C16.3222 13.0161 16.1396 13.7557 15.7745 14.3685C15.4093 14.9813 14.8739 15.4486 14.1683 15.7704C13.4626 16.0861 12.5992 16.244 11.5779 16.244H8.38406V21.5454ZM8.38406 14.7863H11.5779C12.2773 14.7863 12.8437 14.6749 13.2769 14.4521C13.7102 14.2292 14.0259 13.9198 14.224 13.5236C14.4282 13.1275 14.5303 12.6756 14.5303 12.1681C14.5303 11.7039 14.4282 11.2675 14.224 10.859C14.0259 10.4505 13.7102 10.1224 13.2769 9.87484C12.8437 9.62107 12.2773 9.49418 11.5779 9.49418H8.38406V14.7863ZM18.1141 14.3035C18.1002 14.3403 18.0866 14.3775 18.0735 14.4149C17.9446 14.7822 17.8544 15.1784 17.803 15.6033C17.769 15.8847 17.752 16.1787 17.752 16.4853V16.8753C17.752 16.9188 17.7524 16.9622 17.7533 17.0053C17.7612 17.4211 17.8076 17.8173 17.8922 18.1937C17.9411 18.4107 18.0027 18.6211 18.077 18.825C18.2936 19.4192 18.6031 19.933 19.0054 20.3662C19.4139 20.7995 19.8998 21.1368 20.4631 21.3782C21.0325 21.6134 21.667 21.731 22.3664 21.731C23.0287 21.731 23.6012 21.6382 24.084 21.4525C24.573 21.2668 24.9846 21.0254 25.3188 20.7283C25.334 20.7148 25.3491 20.7013 25.364 20.6878C25.4742 20.5878 25.5778 20.486 25.6748 20.3825C25.8542 20.1911 26.0109 19.9938 26.1452 19.7906L25.1053 18.9643C25.0685 19.0126 25.031 19.0598 24.9928 19.1059C24.7031 19.4551 24.3723 19.739 24.0005 19.9577C23.5796 20.2053 23.0658 20.3291 22.4592 20.3291C21.9888 20.3291 21.5679 20.2393 21.1966 20.0598C20.8314 19.8804 20.5188 19.6328 20.2588 19.3171C20.0051 19.0014 19.8101 18.6362 19.6739 18.2215C19.671 18.2123 19.6682 18.203 19.6654 18.1937C19.5527 17.8194 19.4911 17.4233 19.4806 17.0053H26.2751V16.2347C26.2751 16.0932 26.2719 15.9539 26.2654 15.8169C26.2396 15.2706 26.1624 14.76 26.0337 14.2849C26.0083 14.1901 25.9807 14.0972 25.951 14.0064C25.9246 13.9258 25.8964 13.8467 25.8666 13.7692C25.7174 13.3816 25.5255 13.0335 25.291 12.7252C24.9567 12.2795 24.5266 11.9329 24.0005 11.6853C23.4805 11.4377 22.8616 11.3139 22.1436 11.3139C21.5803 11.3139 21.0356 11.4284 20.5095 11.6574C19.9834 11.8865 19.513 12.2238 19.0983 12.6695C18.6836 13.1151 18.3555 13.6598 18.1141 14.3035ZM28.8933 12.818V14.0064H29.4226V19.0571C29.4226 19.4602 29.4757 19.9415 29.7097 20.3695L29.1997 20.6448L29.715 20.3791C29.7272 20.401 29.7398 20.4228 29.753 20.4445C29.8838 20.66 30.0537 20.8575 30.2643 21.0165C30.4207 21.1345 30.5995 21.2314 30.8015 21.2987C30.9345 21.343 31.0693 21.3766 31.2052 21.4001C31.2512 21.4081 31.2973 21.4149 31.3436 21.4206L31.3445 21.5532L32.5328 21.5454L32.4761 21.3672C32.495 21.3635 32.5135 21.3598 32.5316 21.3562L32.5235 20.1434C32.4431 20.162 32.3224 20.1867 32.1615 20.2177C32.0067 20.2424 31.8582 20.2548 31.7158 20.2548C31.5831 20.2548 31.4564 20.2415 31.3356 20.2149L31.3377 20.5409C31.2961 20.542 31.2519 20.5426 31.2052 20.5426C31.1534 20.5426 31.1036 20.5406 31.0555 20.5367C30.863 20.5211 30.6987 20.4752 30.5533 20.4064C30.4675 20.3657 30.3709 20.2929 30.273 20.1288C30.2658 20.1167 30.2585 20.1041 30.2513 20.0909C30.1684 19.9247 30.0827 19.607 30.0818 19.0571C30.0817 19.054 30.0817 19.051 30.0817 19.0478V14.0064H30.611V12.818H32.4864V11.4996H30.611V10.3112H30.0817V10.2462H30.611V9.05781H28.8933V10.2462H29.4226V10.3112H28.8933V11.4996H27.055V12.818H28.8933ZM37.7971 20.1248C37.401 20.0196 37.0451 19.8587 36.7294 19.642C36.4199 19.4254 36.1754 19.1531 35.9959 18.825C35.8164 18.4908 35.7267 18.0916 35.7267 17.6273H33.9441C33.9441 18.0559 34.0028 18.4521 34.1202 18.8157C34.1876 19.0245 34.2743 19.2226 34.3804 19.4099C34.6775 19.9175 35.0706 20.3446 35.5596 20.6912C36.0547 21.0378 36.6025 21.2978 37.2029 21.4711C37.8095 21.6444 38.4253 21.731 39.0505 21.731C39.7623 21.731 40.406 21.6475 40.9817 21.4804C41.5635 21.3071 42.0617 21.0626 42.4764 20.7469C42.8912 20.4312 43.2099 20.0506 43.4327 19.6049C43.6556 19.1593 43.767 18.661 43.767 18.1101C43.767 17.584 43.6772 17.1136 43.4977 16.6989C43.3244 16.278 43.0552 15.9035 42.69 15.5755C42.331 15.2412 41.873 14.941 41.3159 14.6749C40.7588 14.4087 40.0965 14.1673 39.329 13.9507C38.772 13.796 38.2923 13.635 37.8899 13.4679C37.4938 13.3008 37.1658 13.1182 36.9058 12.9201C36.652 12.7221 36.4632 12.5085 36.3394 12.2795C36.2218 12.0443 36.163 11.7843 36.163 11.4996C36.163 11.0787 36.2621 10.7042 36.4601 10.3762C36.6644 10.0482 36.9739 9.78819 37.3886 9.59631C37.8033 9.40443 38.3294 9.30849 38.9669 9.30849C39.6416 9.30849 40.1987 9.423 40.6381 9.65201C41.0776 9.87484 41.4056 10.1843 41.6223 10.5805C41.8389 10.9704 41.9472 11.4191 41.9472 11.9267H43.7298C43.7298 11.7825 43.7221 11.6402 43.7066 11.4996C43.6779 11.2397 43.6227 10.9859 43.541 10.7383C43.4948 10.5983 43.4402 10.4604 43.377 10.3244C43.3167 10.1944 43.2486 10.0662 43.1728 9.93983C42.8014 9.31468 42.2598 8.81023 41.548 8.42647C40.8424 8.03653 39.982 7.84155 38.9669 7.84155C38.2737 7.84155 37.6455 7.9344 37.0822 8.12009C36.5189 8.30577 36.0331 8.56574 35.6245 8.89998C35.2222 9.22803 34.9127 9.61488 34.6961 10.0605C34.4795 10.5062 34.3711 10.9921 34.3711 11.5182C34.3711 12.0443 34.4733 12.5116 34.6775 12.9201C34.8818 13.3286 35.1758 13.6907 35.5596 14.0064C35.9433 14.3221 36.4044 14.6037 36.9429 14.8513C37.4814 15.0927 38.0849 15.3124 38.7534 15.5105C39.3909 15.6962 39.917 15.8788 40.3317 16.0583C40.7526 16.2378 41.0807 16.4265 41.3159 16.6246C41.5573 16.8227 41.7244 17.0455 41.8173 17.2931C41.9163 17.5345 41.9658 17.813 41.9658 18.1287C41.9658 18.5682 41.8513 18.9488 41.6223 19.2707C41.3995 19.5925 41.0714 19.8401 40.6381 20.0134C40.2049 20.1867 39.6756 20.2734 39.0505 20.2734C38.6172 20.2734 38.1994 20.2239 37.7971 20.1248ZM24.5575 15.6033V15.4733C24.5375 15.1124 24.4728 14.7596 24.3634 14.4149C24.3377 14.334 24.3096 14.2535 24.279 14.1735C24.1242 13.7526 23.8767 13.406 23.5362 13.1337C23.1958 12.8613 22.7316 12.7252 22.1436 12.7252C21.7536 12.7252 21.3946 12.8087 21.0666 12.9758C20.7385 13.1368 20.4569 13.3782 20.2217 13.7C20.0694 13.9085 19.9391 14.1468 19.8309 14.4149C19.772 14.5608 19.7197 14.7156 19.6739 14.8791C19.611 15.1039 19.5633 15.3453 19.5308 15.6033H24.5575ZM44.5654 11.4996V12.818H46.4038V19.0478C46.4038 19.7163 46.5059 20.2486 46.7101 20.6448C46.9206 21.0347 47.2022 21.3132 47.555 21.4804C47.9078 21.6475 48.2947 21.731 48.7156 21.731C49.0251 21.731 49.2881 21.7094 49.5048 21.6661C49.7276 21.6289 49.9071 21.5887 50.0433 21.5454L50.034 20.1434C49.9535 20.162 49.8328 20.1867 49.6719 20.2177C49.5171 20.2424 49.3686 20.2548 49.2262 20.2548C49.0936 20.2548 48.9668 20.2415 48.846 20.2149C48.7921 20.203 48.7393 20.1885 48.6877 20.1713C48.5206 20.1156 48.3844 20.001 48.2792 19.8277C48.174 19.6544 48.1214 19.3976 48.1214 19.0571V12.818H49.9968V11.4996H48.1214V9.05781H46.4038V11.4996H44.5654ZM65.5323 11.5709C65.471 11.6003 65.4113 11.6323 65.3533 11.6667C65.0451 11.8477 64.7795 12.0867 64.5563 12.3836C64.4971 12.4624 64.4409 12.5453 64.3877 12.6323C64.3835 12.6391 64.3793 12.6458 64.3752 12.6526L64.3413 11.4996H62.6701V21.5454H64.3877V14.4034C64.4181 14.3326 64.4508 14.2642 64.4859 14.1981C64.4872 14.1958 64.4884 14.1935 64.4896 14.1912C64.5931 13.9978 64.717 13.8248 64.8612 13.6722C65.0142 13.5101 65.1918 13.3743 65.3939 13.2646C65.4526 13.2328 65.5133 13.2032 65.5761 13.1758C65.5945 13.1677 65.613 13.1599 65.6318 13.1522C65.8418 13.0665 66.074 13.0105 66.3284 12.9841C66.4415 12.9724 66.559 12.9666 66.6809 12.9666C66.8419 12.9666 66.9842 12.9727 67.108 12.9851C67.2221 12.9906 67.3409 13.0055 67.4645 13.03C67.4818 13.0334 67.4991 13.037 67.5165 13.0408L67.5258 11.4439C67.4639 11.413 67.3525 11.3851 67.1916 11.3603C67.0649 11.336 66.9497 11.3212 66.8461 11.316C66.818 11.3146 66.7908 11.3139 66.7645 11.3139C66.2997 11.3139 65.8889 11.3996 65.5323 11.5709ZM71.7615 21.437L71.3881 22.4552C71.3043 22.7105 71.2099 22.9318 71.105 23.119C71.0395 23.236 70.9698 23.3397 70.8961 23.4301C70.7104 23.6715 70.4814 23.8417 70.209 23.9407C70.0805 23.9904 69.9389 24.0283 69.7842 24.0546C69.6111 24.0839 69.4215 24.0986 69.2156 24.0986C69.1722 24.0986 69.0949 24.0924 68.9835 24.08C68.8782 24.0738 68.8009 24.0676 68.7514 24.0614L68.7606 25.4541C68.8473 25.4789 68.9958 25.5098 69.2063 25.5469C69.4167 25.5841 69.59 25.6026 69.7262 25.6026C70.1842 25.6026 70.5773 25.5191 70.9053 25.352C71.2396 25.191 71.5243 24.9806 71.7595 24.7206C71.9947 24.4607 72.1866 24.1852 72.3351 23.8943C72.4899 23.6096 72.6137 23.3434 72.7065 23.0959L76.736 11.4996H74.8976L72.5654 19.0155L70.0512 11.4996H68.1757L71.7615 21.437ZM52.5965 20.2734C52.2003 19.8092 51.897 19.2676 51.6866 18.6486C51.4761 18.0297 51.3709 17.3581 51.3709 16.6339V16.4204C51.3709 15.6962 51.4761 15.0246 51.6866 14.4056C51.897 13.7805 52.2003 13.2389 52.5965 12.7809C52.9926 12.3166 53.4723 11.9576 54.0356 11.7039C54.5988 11.4439 55.2301 11.3139 55.9296 11.3139C56.6352 11.3139 57.2696 11.4439 57.8329 11.7039C58.4023 11.9576 58.8851 12.3166 59.2812 12.7809C59.6836 13.2389 59.99 13.7805 60.2004 14.4056C60.4109 15.0246 60.5161 15.6962 60.5161 16.4204V16.6339C60.5161 17.3581 60.4109 18.0297 60.2004 18.6486C59.99 19.2676 59.6836 19.8092 59.2812 20.2734C58.8851 20.7314 58.4054 21.0904 57.8422 21.3504C57.2851 21.6042 56.6538 21.731 55.9481 21.731C55.2425 21.731 54.6081 21.6042 54.0448 21.3504C53.4816 21.0904 52.9988 20.7314 52.5965 20.2734ZM58.065 13.8393C57.8298 13.4927 57.5327 13.2203 57.1737 13.0223C56.8209 12.8242 56.4062 12.7252 55.9296 12.7252C55.4592 12.7252 55.0445 12.8242 54.6855 13.0223C54.3327 13.2203 54.0356 13.4927 53.7942 13.8393C53.559 14.1797 53.3825 14.5728 53.2649 15.0184C53.1473 15.4579 53.0885 15.9252 53.0885 16.4204V16.6339C53.0885 17.1353 53.1473 17.6088 53.2649 18.0544C53.3825 18.4939 53.559 18.8838 53.7942 19.2243C54.0356 19.5647 54.3358 19.8339 54.6947 20.032C55.0537 20.2239 55.4715 20.3198 55.9481 20.3198C56.4186 20.3198 56.8302 20.2239 57.183 20.032C57.542 19.8339 57.8391 19.5647 58.0743 19.2243C58.3095 18.8838 58.4859 18.4939 58.6035 18.0544C58.7273 17.6088 58.7892 17.1353 58.7892 16.6339V16.4204C58.7892 15.9252 58.7273 15.4579 58.6035 15.0184C58.4859 14.5728 58.3064 14.1797 58.065 13.8393ZM17.4828 43.2734C17.0867 42.8092 16.7834 42.2676 16.5729 41.6486C16.3625 41.0297 16.2572 40.3581 16.2572 39.6339V39.4204C16.2572 38.6962 16.3625 38.0246 16.5729 37.4056C16.7834 36.7805 17.0867 36.2389 17.4828 35.7809C17.8789 35.3166 18.3586 34.9576 18.9219 34.7039C19.4851 34.4439 20.1165 34.3139 20.8159 34.3139C21.5215 34.3139 22.1559 34.4439 22.7192 34.7039C23.2886 34.9576 23.7714 35.3166 24.1676 35.7809C24.5699 36.2389 24.8763 36.7805 25.0867 37.4056C25.2972 38.0246 25.4024 38.6962 25.4024 39.4204V39.6339C25.4024 40.3581 25.2972 41.0297 25.0867 41.6486C24.8763 42.2676 24.5699 42.8092 24.1676 43.2734C23.7714 43.7314 23.2917 44.0904 22.7285 44.3504C22.1714 44.6042 21.5401 44.731 20.8345 44.731C20.1288 44.731 19.4944 44.6042 18.9312 44.3504C18.3679 44.0904 17.8851 43.7314 17.4828 43.2734ZM22.9513 36.8393C22.7161 36.4927 22.419 36.2203 22.06 36.0223C21.7072 35.8242 21.2925 35.7252 20.8159 35.7252C20.3455 35.7252 19.9308 35.8242 19.5718 36.0223C19.219 36.2203 18.9219 36.4927 18.6805 36.8393C18.4453 37.1797 18.2689 37.5728 18.1513 38.0184C18.0337 38.4579 17.9749 38.9252 17.9749 39.4204V39.6339C17.9749 40.1353 18.0337 40.6088 18.1513 41.0544C18.2689 41.4939 18.4453 41.8838 18.6805 42.2243C18.9219 42.5647 19.2221 42.8339 19.5811 43.032C19.9401 43.2239 20.3579 43.3198 20.8345 43.3198C21.3049 43.3198 21.7165 43.2239 22.0693 43.032C22.4283 42.8339 22.7254 42.5647 22.9606 42.2243C23.1958 41.8838 23.3722 41.4939 23.4898 41.0544C23.6136 40.6088 23.6755 40.1353 23.6755 39.6339V39.4204C23.6755 38.9252 23.6136 38.4579 23.4898 38.0184C23.3722 37.5728 23.1927 37.1797 22.9513 36.8393ZM27.5564 34.4996V44.5454H29.274V37.3763C29.3829 37.1597 29.5098 36.9591 29.6547 36.7743C29.6906 36.7296 29.7275 36.6863 29.7652 36.6443C29.7719 36.6369 29.7786 36.6295 29.7854 36.6222C29.8804 36.5188 29.9811 36.4239 30.0877 36.3375C30.1987 36.2474 30.3161 36.1666 30.4397 36.0949C30.4776 36.0729 30.5162 36.0518 30.5553 36.0315C30.6156 36.0008 30.677 35.9728 30.7395 35.9473C31.0425 35.824 31.3711 35.7623 31.7251 35.7623C32.1584 35.7623 32.5235 35.8366 32.8207 35.9851C33.1178 36.1275 33.3437 36.3596 33.4984 36.6815C33.6532 36.9971 33.7305 37.418 33.7305 37.9441V44.5454H35.4574V37.9627C35.4574 37.3004 35.3832 36.7403 35.2346 36.2822C35.086 35.818 34.8694 35.4404 34.5847 35.1495C34.3062 34.8586 33.9688 34.6482 33.5727 34.5182C33.1766 34.382 32.7309 34.3139 32.2357 34.3139C31.6291 34.3139 31.0752 34.4346 30.5738 34.676C30.5089 34.7069 30.4451 34.7394 30.3825 34.7737C30.3114 34.8126 30.2418 34.8537 30.1736 34.8971C30.1242 34.9285 30.0756 34.9611 30.0278 34.9948C30.0255 34.9964 30.0232 34.9981 30.0209 34.9997C29.7531 35.1896 29.5103 35.416 29.2926 35.6787C29.2732 35.7021 29.2541 35.7256 29.2353 35.7494L29.1812 34.4996H27.5564ZM42.95 32.522C42.7828 32.3302 42.6993 32.1011 42.6993 31.835C42.6993 31.5565 42.7828 31.3212 42.95 31.1294C43.1233 30.9375 43.377 30.8416 43.7113 30.8416C44.0393 30.8416 44.29 30.9375 44.4633 31.1294C44.6428 31.3212 44.7326 31.5565 44.7326 31.835C44.7326 32.1011 44.6428 32.3302 44.4633 32.522C44.29 32.7077 44.0393 32.8006 43.7113 32.8006C43.377 32.8006 43.1233 32.7077 42.95 32.522ZM43.5943 31.7114C43.5876 31.719 43.5717 31.7399 43.5588 31.7727C43.5468 31.8032 43.5446 31.8259 43.5442 31.833C43.5443 31.8335 43.5444 31.8341 43.5445 31.835C43.5452 31.8406 43.5477 31.8543 43.5549 31.8734C43.5631 31.8947 43.5733 31.9122 43.5824 31.925C43.5834 31.9264 43.5844 31.9277 43.5853 31.929L43.7075 31.815L43.7083 31.8143L43.5943 31.7114ZM43.7218 31.8016L43.6053 31.7001C43.6238 31.6818 43.6444 31.665 43.6663 31.6506C43.6811 31.6409 43.695 31.6333 43.7073 31.6273C43.7086 31.628 43.7099 31.6286 43.7113 31.6293C43.7214 31.6345 43.7325 31.6408 43.7442 31.6485C43.7709 31.6659 43.7963 31.6872 43.8187 31.7112L43.7218 31.8016ZM43.7349 31.8384L43.6059 31.9507C43.6199 31.9635 43.6351 31.9757 43.6514 31.9867C43.6719 32.0006 43.6911 32.0108 43.7075 32.018C43.7088 32.0175 43.71 32.0169 43.7113 32.0163C43.7255 32.0096 43.7417 32.0007 43.7592 31.989C43.7847 31.9718 43.8082 31.9515 43.8285 31.9296C43.8288 31.9293 43.8283 31.9298 43.8285 31.9296C43.8294 31.9286 43.831 31.9269 43.8319 31.9259L43.7349 31.8384ZM43.7494 31.8257L43.8461 31.7415C43.854 31.7505 43.868 31.7707 43.8784 31.799C43.8835 31.8131 43.8858 31.8241 43.8869 31.8304C43.8866 31.8317 43.8862 31.8333 43.8857 31.835C43.8848 31.8384 43.8835 31.8426 43.8818 31.8475C43.8777 31.8589 43.8722 31.8711 43.8652 31.883C43.8604 31.8911 43.8557 31.8979 43.8515 31.9033C43.8496 31.9058 43.8478 31.908 43.8461 31.9099L43.7494 31.8257ZM49.4119 36.7743C49.4478 36.7296 49.4847 36.6863 49.5225 36.6443C49.5292 36.6369 49.5359 36.6295 49.5426 36.6222C49.6376 36.5188 49.7384 36.4239 49.8449 36.3375C49.956 36.2474 50.0733 36.1666 50.197 36.0949C50.2349 36.0729 50.2734 36.0518 50.3125 36.0315C50.3728 36.0008 50.4343 35.9728 50.4968 35.9473C50.7998 35.824 51.1283 35.7623 51.4823 35.7623C51.9156 35.7623 52.2808 35.8366 52.5779 35.9851C52.875 36.1275 53.1009 36.3596 53.2557 36.6815C53.4104 36.9971 53.4878 37.418 53.4878 37.9441V44.5454H55.2147V37.9627C55.2147 37.3004 55.1404 36.7403 54.9918 36.2822C54.8433 35.818 54.6267 35.4404 54.3419 35.1495C54.0634 34.8586 53.7261 34.6482 53.3299 34.5182C52.9338 34.382 52.4881 34.3139 51.993 34.3139C51.3864 34.3139 50.8324 34.4346 50.3311 34.676C50.2661 34.7069 50.2024 34.7394 50.1398 34.7737C50.0686 34.8126 49.999 34.8537 49.9309 34.897C49.8815 34.9285 49.8328 34.9611 49.785 34.9948C49.7827 34.9964 49.7804 34.9981 49.7781 34.9997C49.5103 35.1896 49.2675 35.416 49.0498 35.6787C49.0305 35.7021 49.0114 35.7256 48.9925 35.7494L48.9384 34.4996H47.3136V44.5454H49.0312V37.3763C49.1401 37.1597 49.267 36.9591 49.4119 36.7743ZM65.6596 37.2849C65.4987 36.6845 65.2511 36.1646 64.9169 35.7252C64.5827 35.2795 64.1525 34.9329 63.6264 34.6853C63.1064 34.4377 62.4875 34.3139 61.7695 34.3139C61.2062 34.3139 60.6615 34.4284 60.1354 34.6574C59.6093 34.8865 59.1389 35.2238 58.7242 35.6695C58.3095 36.1151 57.9814 36.6598 57.74 37.3035C57.7261 37.3403 57.7125 37.3775 57.6994 37.4149C57.5705 37.7822 57.4803 38.1783 57.4289 38.6033C57.3949 38.8847 57.3779 39.1787 57.3779 39.4853V39.8753C57.3779 39.9188 57.3784 39.9622 57.3792 40.0053C57.3871 40.4211 57.4335 40.8173 57.5182 41.1937C57.567 41.4107 57.6286 41.6211 57.7029 41.825C57.9195 42.4192 58.229 42.933 58.6313 43.3662C59.0399 43.7995 59.5257 44.1368 60.089 44.3782C60.6584 44.6134 61.2929 44.731 61.9923 44.731C62.6546 44.731 63.2271 44.6382 63.7099 44.4525C64.1989 44.2668 64.6105 44.0254 64.9447 43.7283C64.9599 43.7148 64.975 43.7013 64.9899 43.6878C65.1001 43.5877 65.2037 43.486 65.3007 43.3825C65.4801 43.1911 65.6369 42.9938 65.7711 42.7906L64.7313 41.9644C64.6945 42.0127 64.6569 42.0599 64.6186 42.106C64.3289 42.4551 63.9982 42.739 63.6264 42.9577C63.2055 43.2053 62.6917 43.3291 62.0851 43.3291C61.6147 43.3291 61.1938 43.2393 60.8225 43.0598C60.4573 42.8804 60.1447 42.6328 59.8847 42.3171C59.631 42.0014 59.436 41.6362 59.2998 41.2215C59.2969 41.2123 59.2941 41.203 59.2913 41.1937C59.1786 40.8194 59.117 40.4233 59.1065 40.0053H65.901V39.2347C65.901 39.0932 65.8978 38.9539 65.8913 38.8169C65.8655 38.2706 65.7883 37.76 65.6596 37.2849ZM64.1834 38.6033V38.4733C64.1634 38.1124 64.0987 37.7596 63.9893 37.4149C63.9636 37.334 63.9355 37.2535 63.9049 37.1735C63.7501 36.7526 63.5026 36.406 63.1621 36.1337C62.8217 35.8613 62.3575 35.7252 61.7695 35.7252C61.3795 35.7252 61.0205 35.8087 60.6925 35.9758C60.3644 36.1368 60.0828 36.3782 59.8476 36.7C59.6953 36.9085 59.565 37.1468 59.4568 37.4149C59.3979 37.5608 59.3456 37.7156 59.2998 37.8791C59.2369 38.1039 59.1892 38.3453 59.1567 38.6033H64.1834ZM39.9325 30.2845H38.2056V44.5454H39.9325V30.2845ZM44.5562 34.4996H42.8293V44.5454H44.5562V34.4996Z" fill="white"/>
<path fill-rule="evenodd" clip-rule="evenodd" d="M20.3804 42.9314C20.1302 41.9283 19.3843 40.7502 18.8032 39.4777C19.3013 40.5684 19.7993 41.659 20.3804 42.9314ZM21.7837 42.8168C20.9547 41.4569 20.4556 39.9084 19.9564 38.3599C19.5424 37.9089 19.2126 38.0974 18.8828 38.286C18.3062 38.8449 17.7285 38.946 18.3904 39.4845C19.2194 40.8444 19.8004 42.1169 20.2166 43.4836C20.3815 43.3893 20.7113 43.2007 20.8762 43.1064C21.206 42.9179 21.2879 42.6418 21.7837 42.8168ZM18.2221 38.2053C17.9719 37.2022 17.226 36.024 16.6449 34.7516C17.1429 35.8423 17.641 36.9329 18.2221 38.2053ZM15.9808 33.2974C15.8136 32.4761 14.9846 31.1161 14.4866 30.0255C14.9846 31.1161 15.3997 32.025 16.0638 33.4792C16.0638 33.4792 16.0638 33.4792 15.9808 33.2974ZM17.3841 33.1828C16.6381 32.0046 16.139 30.4561 15.5567 28.7259C15.2258 28.4566 14.896 28.6452 14.5662 28.8338C13.9896 29.3927 13.4119 29.4938 14.0738 30.0323C14.8197 31.2104 15.4838 32.6646 15.9 34.0313C16.0649 33.937 16.3947 33.7485 16.5596 33.6542C16.8064 33.2838 16.9713 33.1896 17.3841 33.1828ZM13.8225 28.5713C13.6553 27.7499 12.8263 26.39 12.3283 25.2994C12.8263 26.39 13.2414 27.2989 13.9055 28.7531L13.8225 28.5713ZM15.2258 28.4566C14.4798 27.2785 13.9806 25.73 13.3984 23.9998C13.0675 23.7305 12.7377 23.9191 12.4079 24.1077C11.8313 24.6666 11.1706 24.5859 11.9155 25.3062C12.6614 26.4843 13.3255 27.9385 13.7417 29.3052C13.9066 29.2109 14.2364 29.0223 14.3183 28.7463C14.6481 28.5577 14.813 28.4634 15.2258 28.4566ZM14.9084 33.6814C14.2476 33.6007 13.7518 33.4257 13.0911 33.345C13.7518 33.4257 14.1646 33.4189 14.9084 33.6814C13.9167 33.3314 13.173 33.0689 12.2643 32.9008C13.0081 33.1632 13.6688 33.2439 14.6605 33.5939C13.5858 33.0622 12.6772 32.894 11.8504 32.4497C12.5941 32.7122 13.3379 32.9747 14.4125 33.5064C13.5028 32.8804 12.5111 32.5304 11.5195 32.1805C12.5111 32.5304 13.5858 33.0622 14.9084 33.6814C15.1563 33.7689 15.1563 33.7689 14.9084 33.6814ZM14.5786 33.8699C14.5786 33.8699 14.4137 33.9642 14.3307 33.7825C13.0922 33.8028 12.0187 33.7289 11.0281 33.8368C11.9368 34.005 12.9273 33.8971 13.9178 33.7892C12.9273 33.8971 12.1017 33.9107 11.3591 34.1061C12.1847 34.0925 13.1752 33.9846 14.1658 33.8767C13.3401 33.8903 12.5975 34.0857 11.8549 34.2811C12.8454 34.1732 13.588 33.9778 14.4137 33.9642C13.836 34.0653 13.2582 34.1664 12.6805 34.2675C13.2582 34.1664 13.836 34.0653 14.4137 33.9642C14.5786 33.8699 14.5786 33.8699 14.5786 33.8699ZM15.0766 34.9606C14.7468 35.1492 14.5 35.5195 14.0053 35.8024C14.3351 35.6138 14.5819 35.2434 15.0766 34.9606C14.5819 35.2434 14.0053 35.8024 13.5106 36.0852C14.0053 35.8024 14.417 35.3377 14.9117 35.0549C14.2521 35.432 13.5925 35.8092 13.0159 36.3681C13.4276 35.9034 14.0872 35.5263 14.7468 35.1492C14.0872 35.5263 13.4276 35.9034 12.768 36.2806C13.4276 35.9034 14.1691 35.2502 14.9936 34.7788C15.1585 34.6845 15.2415 34.8663 15.0766 34.9606ZM15.1596 35.1424C14.9947 35.2366 14.9947 35.2366 14.9947 35.2366C14.3363 36.0716 13.8427 36.8123 13.514 37.4587C13.8427 36.8123 14.3363 36.0716 14.748 35.607C14.4193 36.2534 14.0076 36.718 13.6789 37.3644C14.0076 36.718 14.5012 35.9773 14.8298 35.3309C14.5012 35.9773 14.3374 36.5295 14.0906 36.8998C14.3374 36.5295 14.6661 35.883 14.9947 35.2366C14.831 35.7888 14.5842 36.1591 14.5023 36.4352C14.7491 36.0648 14.748 35.607 14.9947 35.2366L15.1596 35.1424ZM15.5713 34.6777C15.7362 34.5834 15.7362 34.5834 15.9011 34.4892C15.9842 34.6709 15.9842 34.6709 16.2321 34.7584C17.0611 36.1183 17.6421 37.3907 18.0583 38.7574C18.2232 38.6632 18.553 38.4746 18.7179 38.3803C18.9647 38.01 19.1296 37.9157 19.5424 37.9089C18.7964 36.7307 18.2973 35.1823 17.7151 33.452C17.3841 33.1828 17.0543 33.3713 16.7245 33.5599C16.3128 34.0245 15.9 34.0313 15.8181 34.3074C15.7351 34.1256 15.4872 34.0381 15.4042 33.8563C15.3212 33.6746 15.0733 33.5871 14.6593 33.136C13.5847 32.6043 11.8493 31.9919 10.9406 31.8237C11.1897 32.369 12.5123 32.9883 13.5869 33.52C12.5134 33.4461 11.11 33.5608 10.2855 34.0322C11.1123 34.4764 14.1669 34.3346 15.0744 34.0449C15.0744 34.0449 15.2393 33.9506 15.3223 34.1324C15.5702 34.2199 15.8181 34.3074 15.9011 34.4892C15.7362 34.5834 15.5713 34.6777 15.3234 34.5902C15.3234 34.5902 15.1585 34.6845 14.8287 34.8731C13.9212 35.1627 12.8499 36.0045 12.2733 36.5634C12.7691 36.7384 13.7586 36.1727 14.5 35.5195C14.0065 36.2602 13.431 37.2769 13.1023 37.9233C13.8449 37.728 15.1608 35.6002 15.2415 34.8663C15.4064 34.772 15.4064 34.772 15.5713 34.6777Z" fill="white"/>
<path fill-rule="evenodd" clip-rule="evenodd" d="M80 1H2C1.44772 1 1 1.44772 1 2V50C1 50.5523 1.44771 51 2 51H80C80.5523 51 81 50.5523 81 50V2C81 1.44771 80.5523 1 80 1ZM2 0C0.89543 0 0 0.895432 0 2V50C0 51.1046 0.895429 52 2 52H80C81.1046 52 82 51.1046 82 50V2C82 0.895431 81.1046 0 80 0H2Z" fill="white"/>
</svg>
